<?xml version="1.0" encoding="UTF-8"?>
<!DOCTYPE svg PUBLIC "-//W3C//DTD SVG 1.1//EN" "http://www.w3.org/Graphics/SVG/1.1/DTD/svg11.dtd">
<!-- Creator: CorelDRAW 2018 (64 Bit) -->
<svg xmlns="http://www.w3.org/2000/svg" xml:space="preserve" width="5.1189mm" height="6.6514mm" version="1.1" style="shape-rendering:geometricPrecision; text-rendering:geometricPrecision; image-rendering:optimizeQuality; fill-rule:evenodd; clip-rule:evenodd"
viewBox="0 0 492.63 640.12"
 xmlns:xlink="http://www.w3.org/1999/xlink">
 <defs>
  <style type="text/css">
   <![CDATA[
    .fil0 {fill:#004E90}
   ]]>
  </style>
 </defs>
 <g id="Camada_x0020_1">
  <metadata id="CorelCorpID_0Corel-Layer"/>
  <path class="fil0" d="M120.45 30.97c114.16,-64.74 259.18,-24.68 323.91,89.48 54.71,96.49 34.57,215.02 -41.93,288.5l82.86 146.13c15.43,27.19 5.69,62.28 -21.46,77.67l-0.02 0.01c-27.15,15.4 -62.21,5.81 -77.67,-21.46l-82.42 -145.34c-103.28,30.01 -217.38,-13.44 -272.76,-111.09 -64.73,-114.16 -24.67,-259.18 89.49,-323.91zm20.13 35.5c94.53,-53.61 214.67,-20.42 268.27,74.11 53.6,94.54 20.42,214.67 -74.11,268.28 -94.54,53.6 -214.67,20.41 -268.28,-74.12 -53.6,-94.53 -20.42,-214.67 74.12,-268.27z"/>
 </g>
</svg>
