<?xml version="1.0" encoding="UTF-8"?>
<!DOCTYPE svg PUBLIC "-//W3C//DTD SVG 1.1//EN" "http://www.w3.org/Graphics/SVG/1.1/DTD/svg11.dtd">
<!-- Creator: CorelDRAW 2018 (64 Bit) -->
<svg xmlns="http://www.w3.org/2000/svg" xml:space="preserve" width="3.9596mm" height="2.3605mm" version="1.1" style="shape-rendering:geometricPrecision; text-rendering:geometricPrecision; image-rendering:optimizeQuality; fill-rule:evenodd; clip-rule:evenodd"
viewBox="0 0 13.47 8.03"
 xmlns:xlink="http://www.w3.org/1999/xlink">
 <defs>
  <style type="text/css">
   <![CDATA[
    .fil0 {fill:#004E90}
    .fil1 {fill:#004E90;fill-rule:nonzero}
   ]]>
  </style>
 </defs>
 <g id="Camada_x0020_1">
  <metadata id="CorelCorpID_0Corel-Layer"/>
  <g id="_2642795499232">
   <path class="fil0" d="M0.95 0.02c-0.34,0.05 -0.57,0.22 -0.72,0.42 -0.22,0.29 -0.23,0.49 -0.23,0.91l0 4.55c0,0.34 -0.04,0.78 0.07,1.07 0.11,0.28 0.3,0.47 0.55,0.59 0.31,0.15 0.65,0.11 1.02,0.11l6.57 0 -0.01 -0.06c-0.03,-0.2 -0.03,-0.42 -0.03,-0.63l-6.6 0c-0.31,0 -0.82,0.09 -0.87,-0.36 -0.01,-0.14 -0,-1.03 -0,-1.24 0,-1.2 -0.03,-2.52 0,-3.69l8.77 0c0.23,-0.38 0.59,-0.67 1.04,-0.78 -0.01,-0.07 -0.03,-0.14 -0.05,-0.19 -0.11,-0.28 -0.29,-0.47 -0.55,-0.59 -0.31,-0.15 -0.65,-0.11 -1.02,-0.11 -2.28,0 -4.55,0 -6.83,0 -0.31,0 -0.85,-0.03 -1.12,0.01zm5.86 1.42l0.93 0 0 -0.28 -0.93 -0.01 -0 0.28zm1.43 -0.82l0.27 0.28c-0.05,0.09 -0.2,0.18 -0.27,0.29l0.24 0.25c0.08,-0.06 0.22,-0.25 0.3,-0.28l0.27 0.28 0.25 -0.25c-0.06,-0.1 -0.22,-0.2 -0.28,-0.3l0.28 -0.27c-0.04,-0.06 -0.19,-0.21 -0.24,-0.24 -0.09,0.04 -0.2,0.22 -0.29,0.27 -0.06,-0.07 -0.21,-0.23 -0.28,-0.27 -0.06,0.03 -0.2,0.18 -0.24,0.24zm-1.89 -0.05l-4.56 0 0 0.62 4.56 0 0 -0.62zm-5.66 0l0.72 0 0 0.62 -0.72 0 0 -0.62z"/>
   <path class="fil1" d="M4.19 3.38l-0.32 1.12 -0.37 0 -0.14 -0.52 -0.14 0.52 -0.37 0 -0.32 -1.12 0.36 0 0.16 0.59 0.17 -0.59 0.32 0 0.16 0.6 0.17 -0.6 0.33 0zm1.91 0l-0.32 1.12 -0.37 0 -0.14 -0.52 -0.14 0.52 -0.37 0 -0.32 -1.12 0.36 0 0.16 0.59 0.17 -0.59 0.32 0 0.16 0.6 0.17 -0.6 0.33 0zm1.91 0l-0.32 1.12 -0.37 0 -0.14 -0.52 -0.14 0.52 -0.37 0 -0.32 -1.12 0.36 0 0.16 0.59 0.17 -0.59 0.32 0 0.16 0.6 0.17 -0.6 0.33 0z"/>
   <path class="fil0" d="M10.77 1.11c-0.75,0.09 -1.38,0.79 -1.28,1.65 0.23,1.89 3.17,1.6 2.92,-0.39 -0.09,-0.74 -0.78,-1.36 -1.64,-1.26zm-2.32 6.46c0.52,0.25 1.86,0.43 2.49,0.45 0.65,0.02 2.08,-0.13 2.51,-0.49 0.03,-0.45 0.01,-1.02 0.01,-1.47 -0.01,-0.8 -0.46,-1.5 -1.18,-1.78 -0.53,-0.21 -2.15,-0.2 -2.67,0 -0.74,0.29 -1.16,0.99 -1.17,1.78 -0.01,0.41 -0.04,1.13 0.01,1.51z"/>
  </g>
 </g>
</svg>
