<?xml version="1.0" encoding="UTF-8"?>
<!DOCTYPE svg PUBLIC "-//W3C//DTD SVG 1.1//EN" "http://www.w3.org/Graphics/SVG/1.1/DTD/svg11.dtd">
<!-- Creator: CorelDRAW 2018 (64 Bit) -->
<svg xmlns="http://www.w3.org/2000/svg" xml:space="preserve" width="2.6429mm" height="2.6429mm" version="1.1" style="shape-rendering:geometricPrecision; text-rendering:geometricPrecision; image-rendering:optimizeQuality; fill-rule:evenodd; clip-rule:evenodd"
viewBox="0 0 49.65 49.65"
 xmlns:xlink="http://www.w3.org/1999/xlink">
 <defs>
  <style type="text/css">
   <![CDATA[
    .fil1 {fill:#FEFEFE}
    .fil0 {fill:#004E90}
   ]]>
  </style>
 </defs>
 <g id="Camada_x0020_1">
  <metadata id="CorelCorpID_0Corel-Layer"/>
  <g id="_2642924127808">
   <rect class="fil0" x="-0" y="-0" width="49.65" height="49.65" rx="9.93" ry="9.93"/>
   <path class="fil1" d="M6.26 13.73c0,2.18 0.77,4.23 1.48,6.21 0.17,0.48 0.32,0.85 0.53,1.28 0.2,0.44 0.34,0.83 0.55,1.26 1.72,3.45 3.13,6.03 5.58,9.07 0.15,0.18 0.24,0.31 0.39,0.48l2.76 2.76c1.72,1.6 4.97,3.6 7.1,4.79 2.83,1.58 8.02,3.82 11.26,3.82 0.15,0 0.41,-0.24 0.54,-0.33 0.21,-0.15 0.36,-0.24 0.56,-0.38l2.1 -1.6c0.18,-0.15 0.34,-0.26 0.52,-0.43l1.96 -1.74c0.18,-0.21 0.23,-0.3 0.44,-0.51 0.57,-0.55 1.36,-1.59 1.36,-2.56 0,-0.98 -1.25,-2.52 -1.82,-3.25 -0.19,-0.24 -0.27,-0.31 -0.48,-0.53l-1.56 -1.56c-1.02,-0.94 -3.31,-2.48 -4.77,-2.48 -1.45,0 -2.62,2.11 -3.32,3.2l-0.57 0.88c-0.12,0.16 -0.18,0.28 -0.3,0.43 -0.51,0.65 -1.19,0.93 -2.19,0.93 -2.6,0 -5.78,-3.5 -7.23,-4.95 -1.7,-1.7 -4.95,-4.57 -4.95,-7.45 0,-1.67 1.47,-2.39 2.67,-3.13 1.17,-0.73 2.77,-1.7 2.77,-3.1 0,-0.94 -0.74,-2.32 -1.14,-2.92l-1.3 -1.74c-1.23,-1.39 -3.82,-3.9 -5.6,-3.9 -1.23,0 -2.85,1.83 -3.72,2.74l-1.26 1.49c-0.23,0.28 -2.34,3.01 -2.34,3.24z"/>
  </g>
 </g>
</svg>
